<svg id="ab4228c3-7560-46c3-9f28-56b448991f21" data-name="Layer 1" xmlns="http://www.w3.org/2000/svg" width="670" height="711.55591" viewBox="0 0 670 711.55591"><title>play time</title><path d="M818.5,782.778c-15.39392,0-30.0871.29541-43.53882.83081A2.072,2.072,0,0,0,775,783.278c0-4.66742-16.02979-8.93048-42.46613-12.18531,77.85541-4.22778,130.04364-11.99011,130.04364-20.86767,0-13.39685-118.82458-24.25714-265.40216-24.25714s-265.4021,10.86029-265.4021,24.25714c0,2.49841,4.13709,4.90838,11.81147,7.17633C297.85876,758.95417,265,763.23706,265,768.278c0,6.35125,52.15881,11.5,116.5,11.5,20.59656,0,39.94019-.52832,56.7287-1.4541-4.05335,1.5769-6.2287,3.238-6.2287,4.9541,0,10.21722,76.78314,18.5,171.5,18.5,39.35321,0,75.60321-1.43085,104.54388-3.83515C723.54547,802.49707,767.1402,805.778,818.5,805.778c64.34119,0,116.5-5.14875,116.5-11.5S882.84119,782.778,818.5,782.778Z" transform="translate(-265 -94.22204)" fill="#3f3d56"/><path d="M361.03917,716.33341c6.70634,24.79067,29.67707,40.14415,29.67707,40.14415s12.0976-24.84013,5.39126-49.63079-29.67707-40.14415-29.67707-40.14415S354.33283,691.54275,361.03917,716.33341Z" transform="translate(-265 -94.22204)" fill="#3f3d56"/><path d="M370.89366,711.00563c18.4023,17.9139,20.65,45.45172,20.65,45.45172s-27.58832-1.50633-45.99061-19.42023-20.65-45.45172-20.65-45.45172S352.49136,693.09174,370.89366,711.00563Z" transform="translate(-265 -94.22204)" fill="#536dfe"/><path d="M602.58251,183.72593s2.11192,2.42027-1.50669,7.1032-.69665,14.84439,6.17815,15.10326,10.20865,3.13823,8.55123,6.93116-3.64908,12.80555,3.83783,11.43518,9.85312,1.61024,8.52764,3.90107,3.33844-4.55578,3.33844-4.55578,4.17207,6.2155,9.29278,1.86451,7.15661-43.79163-3.28274-44.46011S602.58251,183.72593,602.58251,183.72593Z" transform="translate(-265 -94.22204)" fill="#2f2e41"/><polygon points="390.505 277.066 392.884 293.718 403.59 293.718 400.021 274.687 390.505 277.066" fill="#9f616a"/><path d="M669.779,377.82992s14.27365,13.08418,10.70524,14.27365-16.65259,15.46312-19.03153,16.65259c-2.12779,1.06389-24.97889,8.32629-21.41048,0S651.937,395.672,651.937,395.672l2.37894-14.27365Z" transform="translate(-265 -94.22204)" fill="#f2f2f2"/><path d="M669.779,377.82992s14.27365,13.08418,10.70524,14.27365-16.65259,15.46312-19.03153,16.65259c-2.12779,1.06389-24.97889,8.32629-21.41048,0S651.937,395.672,651.937,395.672l2.37894-14.27365Z" transform="translate(-265 -94.22204)" opacity="0.1"/><polygon points="404.779 264.576 407.158 281.229 417.863 281.229 414.295 262.197 404.779 264.576" fill="#9f616a"/><path d="M625.04743,314.594,640.637,263.046s-26.16836-23.78942-8.3263-30.92624,22.59995,28.5473,22.59995,28.5473l-5.94736,61.85248H625.17387Z" transform="translate(-265 -94.22204)" fill="#ffb8b8"/><path d="M661.45273,276.72489s-30.74222,39.4299-26.07635,45.28857,12.99217,41.54281,12.99217,41.54281-1.18947,14.27365,3.56841,14.27365,16.65259-2.379,16.65259-5.94736-10.70524-48.7683-10.70524-48.7683l30.92625-40.442Z" transform="translate(-265 -94.22204)" fill="#536dfe"/><path d="M663.83167,279.10384l30.92624-16.6526s21.41048,10.70524,15.46312,20.221-33.30518,34.49465-33.30518,34.49465,8.32629,40.442,7.13682,41.63148-14.27365,5.94736-17.84206,4.75789-22.59995-47.57884-17.84206-49.95778,20.221-27.35783,20.221-27.35783Z" transform="translate(-265 -94.22204)" fill="#536dfe"/><path d="M579.37924,715.63964s21.41047,13.08417,23.78942,13.08417,34.49465,8.3263,20.221,14.27365-68.98931-2.37894-67.79984-5.94735,0-24.97889,2.37894-24.97889S579.37924,715.63964,579.37924,715.63964Z" transform="translate(-265 -94.22204)" fill="#2f2e41"/><path d="M603.16866,732.29223s21.41047,13.08418,23.78941,13.08418,34.49466,8.32629,20.221,14.27365-68.98931-2.379-67.79984-5.94736,0-24.97889,2.37894-24.97889S603.16866,732.29223,603.16866,732.29223Z" transform="translate(-265 -94.22204)" fill="#2f2e41"/><path d="M580.56871,480.12441s3.56841,17.84206,9.51577,30.92624-1.18947,74.93666-4.75789,84.45243-38.06306,122.5155-27.35783,123.705,32.11572,0,32.11572,0L624.57913,610.9662l-5.94735-145.11544Z" transform="translate(-265 -94.22204)" fill="#575a88"/><path d="M580.56871,480.12441s3.56841,17.84206,9.51577,30.92624-1.18947,74.93666-4.75789,84.45243-38.06306,122.5155-27.35783,123.705,32.11572,0,32.11572,0L624.57913,610.9662l-5.94735-145.11544Z" transform="translate(-265 -94.22204)" opacity="0.1"/><path d="M587.70553,481.31388s4.75789,32.11571,15.46313,39.25254,7.13682,14.27365,7.13682,14.27365l-4.75788,63.042s-46.38937,114.1892-32.11572,128.46285,27.35783,8.3263,33.30519,7.13683,16.65259-26.16836,10.70524-33.30519,11.8947-49.95777,16.65259-57.0946,0-16.65259,5.94735-19.03153,19.03153-17.84206,19.03153-28.5473,16.6526-124.89444,5.94736-132.03126-79.325,14.72982-79.325,14.72982Z" transform="translate(-265 -94.22204)" fill="#575a88"/><circle cx="300.10559" cy="194.39756" r="26.16836" fill="#ffb8b8"/><circle cx="359.57913" cy="99.23989" r="21.41048" fill="#9f616a"/><path d="M582.94765,288.6196S597.2213,314.788,604.35813,314.788s-28.5473,27.35783-28.5473,27.35783-11.89471-34.49465-14.27365-35.68412S582.94765,288.6196,582.94765,288.6196Z" transform="translate(-265 -94.22204)" fill="#ffb8b8"/><path d="M587.70553,312.409s-30.92624,10.70524-29.73677,14.27365-8.32629,11.89471-8.32629,15.46312-2.37894,35.68413,11.89471,61.85248,36.87359,45.1999,26.16835,57.09461-27.35782,32.11571-9.51576,32.11571,46.38936-26.16836,72.55772-16.65259,20.221-26.16836,20.221-26.16836,3.56842-27.35783-3.56841-35.68413-32.11571-67.79984-32.11571-74.93666S611.495,305.27219,605.5476,305.27219,587.70553,312.409,587.70553,312.409Z" transform="translate(-265 -94.22204)" fill="#8985a8"/><path d="M624.57913,206.54612" transform="translate(-265 -94.22204)" fill="none" stroke="#2f2e41" stroke-miterlimit="10"/><path d="M630.52648,206.54612s9.6859,18.41584,10.19557,21.69736,17.16226-21.69736,17.16226-21.69736l-19.03153-13.08418Z" transform="translate(-265 -94.22204)" fill="#9f616a"/><path d="M634.0949,220.81977l20.221-21.41048,23.78942,10.70524s22.18674,48.7683,23.58281,52.33671-35.47752,20.221-39.04593,20.221-28.5473-36.8736-28.5473-36.8736S628.14754,227.95659,634.0949,220.81977Z" transform="translate(-265 -94.22204)" fill="#f2f2f2"/><polygon points="359.579 155.145 359.579 176.555 373.853 176.555 369.158 155.145 359.579 155.145" fill="#9f616a"/><path d="M632.72307,265.42492a8.8714,8.8714,0,0,0-8.37932,5.63254c-.92982,2.51473-.61424,5.15766,3.80379,6.26217,9.51577,2.37894,10.70524,0,10.70524,0s16.51883-2.37894,13.0173-7.13682-13.0173-4.75789-13.0173-4.75789Z" transform="translate(-265 -94.22204)" fill="#9f616a"/><path d="M684.05267,368.31415s14.27365,13.08418,10.70524,14.27365-16.65259,15.46312-19.03153,16.65259c-2.12779,1.0639-24.97889,8.3263-21.41048,0s11.89471-13.08418,11.89471-13.08418l2.37894-14.27365Z" transform="translate(-265 -94.22204)" fill="#f2f2f2"/><path d="M555.78188,268.47644c1.63718-.95935,3.57076-2.15416,3.61752-4.05113a3.58612,3.58612,0,0,0-2.35145-3.15015,10.52841,10.52841,0,0,0-4.11049-.55393,5.35013,5.35013,0,0,0-1.58915.15751c-1.3549.41791-2.13544,1.7936-3.20261,2.72716-1.54961,1.3556-3.684,1.75431-5.677,2.27094a37.16509,37.16509,0,0,0-9.51449,3.943,4.46217,4.46217,0,0,0-1.50585,1.23882,6.07545,6.07545,0,0,0-.605,3.07885c-.26851,4.03572-2.6881,7.54864-4.4944,11.16753s-2.993,8.12707-.87287,11.57154a39.39945,39.39945,0,0,1,2.3526,3.33963c1.50253,3.13092-.37279,6.986.71281,10.28475a8.99469,8.99469,0,0,0,2.27743,3.41467,18.09632,18.09632,0,0,0,7.49482,4.53791c2.703.83229,6.05663,1.38693,7.11528,4.0096.45414,1.12507.36147,2.45057,1.00217,3.48087.79368,1.27632,2.43,1.68861,3.9081,1.96081a16.7011,16.7011,0,0,0,5.06294.36641,6.28235,6.28235,0,0,0,4.36733-2.33778,12.77109,12.77109,0,0,1,1.76834-2.60783c1.72227-1.43941,4.33833-.30248,6.55026-.68389a4.79087,4.79087,0,0,0,3.754-3.52358,6.67018,6.67018,0,0,1,.762-2.69281c1.37364-1.7578,4.988-.51687,5.895-2.55507.58931-1.3244-.64362-2.72358-1.83578-3.54825-1.94388-1.34467-4.11694-2.37892-5.86037-3.97495s-3.03331-3.98395-2.48745-6.28371c.8186-3.44883,5.32145-5.34781,5.47064-8.88932.08546-2.02883-1.37247-3.80928-3.00464-5.01736s-3.52345-2.0761-4.98244-3.48847c-1.06648-1.03239-1.87065-2.328-3.03-3.25488-2.09654-1.67627-4.96525-1.87957-7.6355-2.15365-1.43229-.147-7.14553-.80866-6.92077-2.99039C548.39951,272.45731,554.32808,269.32834,555.78188,268.47644Z" transform="translate(-265 -94.22204)" fill="#2f2e41"/><path d="M634.0949,219.63029s-13.08418,4.75789-13.08418,10.70524-5.94736,24.97889,0,24.97889,17.84206-4.56588,17.84206-4.56588Z" transform="translate(-265 -94.22204)" fill="#f2f2f2"/><path d="M630.52648,305.27219s34.49466-11.8947,35.68413-11.8947,17.84206-9.51577,16.65259-13.08418l-4.75788-29.73677S659.07378,211.304,672.158,211.304s20.221,30.92624,20.221,30.92624,28.5473,53.52619,13.08418,65.4209-79.69455,33.30518-83.263,29.73677S630.52648,305.27219,630.52648,305.27219Z" transform="translate(-265 -94.22204)" fill="#ffb8b8"/><path d="M663.83167,227.95659l8.02893,7.73723-10.40787,10.10483s-14.27365-5.94735-13.08418-2.37894,8.32629,14.27365,13.08418,14.27365,29.52053-15.46312,29.62865-20.221-15.355-21.41048-18.92342-22.6S663.83167,227.95659,663.83167,227.95659Z" transform="translate(-265 -94.22204)" fill="#9f616a"/><path d="M648.7346,219.66537s17.476,15.42805,19.855,15.42805,6.70539-23.18017,6.70539-23.18017-14.10046-9.18743-19.324-6.68255S648.7346,219.66537,648.7346,219.66537Z" transform="translate(-265 -94.22204)" fill="#f2f2f2"/><path d="M587.70553,319.54584s0-16.65259,35.68413-16.65259h15.46312L631.716,342.14579l-23.78942,7.13683Z" transform="translate(-265 -94.22204)" fill="#8985a8"/><path d="M665.653,184.78426a92.36944,92.36944,0,0,1-10.46333-.64525c-2.72736-6.59088-6.201-12.12116-9.95862-14.183-2.66689-2.3863-6.78011-4.12048-10.00743-5.4916-7.92548-3.367-21.11881-1.26691-21.89009,2.56237-15.59522,7.45178-11.65432,20.53836-11.65432,20.53836,2.42317,5.12218,7.85947,2.85206,12.47141.53242,1.17775,3.7131,3.95956,6.8642,7.94217,7.01416,7.6159.28676,11.30915,3.47651,9.47305,7.67836s-4.04246,14.186,4.25154,12.66786,10.91531,1.78384,9.44692,4.32163,3.69834-5.04691,3.69834-5.04691,4.6218,6.88555,10.29453,2.06552a4.30531,4.30531,0,0,0,1.18181-2.02451c2.638,1.13535,4.7274,1.56631,5.9138,1.0355,6.79483-3.04016,2.57494-10.17906,2.57494-10.17906s9.07116-1.39157,6.14826-1.16089-4.77194-3.55809.17384-10.387S670.23584,184.93923,665.653,184.78426Z" transform="translate(-265 -94.22204)" fill="#2f2e41"/><rect x="614.46863" y="178.59355" width="3.56841" height="10.70524" transform="translate(-175.3885 -279.40004) rotate(18.40679)" fill="#536dfe"/><path d="M409.0545,369.54233c-46.27672.21329-83.94415.897-83.94415.897S369.884,311.13208,408.88658,333.105s83.80663,36.562,83.80663,36.562S455.33123,369.329,409.0545,369.54233Z" transform="translate(-265 -94.22204)" fill="#f2f2f2"/><path d="M742.0545,135.54233c-46.27672.21329-83.94415.897-83.94415.897S702.884,77.13208,741.88658,99.105,825.69321,135.667,825.69321,135.667,788.33123,135.329,742.0545,135.54233Z" transform="translate(-265 -94.22204)" fill="#f2f2f2"/><path d="M818.9455,386.54233c46.27672.21329,83.94415.897,83.94415.897S858.116,328.13208,819.11342,350.105s-83.80663,36.562-83.80663,36.562S772.66877,386.329,818.9455,386.54233Z" transform="translate(-265 -94.22204)" fill="#f2f2f2"/></svg>